<svg xmlns="http://www.w3.org/2000/svg" viewBox="0 0 1600 1000" role="img" aria-labelledby="title desc">
  <title id="title">Meridian M-01 dive watch</title>
  <desc id="desc">A graphite mechanical dive watch lit by narrow studio lights.</desc>
  <defs>
    <radialGradient id="bg" cx="52%" cy="44%" r="65%"><stop offset="0" stop-color="#333a44"/><stop offset=".42" stop-color="#171b21"/><stop offset="1" stop-color="#080a0d"/></radialGradient>
    <linearGradient id="steel" x1="0" y1="0" x2="1" y2="1"><stop stop-color="#15181d"/><stop offset=".27" stop-color="#c3cbd1"/><stop offset=".36" stop-color="#3a4048"/><stop offset=".7" stop-color="#101318"/><stop offset=".88" stop-color="#7f8991"/><stop offset="1" stop-color="#252a31"/></linearGradient>
    <linearGradient id="strap" x1="0" y1="0" x2="1" y2="0"><stop stop-color="#090b0e"/><stop offset=".45" stop-color="#343940"/><stop offset=".55" stop-color="#171a1f"/><stop offset="1" stop-color="#080a0c"/></linearGradient>
    <radialGradient id="dial"><stop stop-color="#171d23"/><stop offset=".75" stop-color="#090c10"/><stop offset="1" stop-color="#030405"/></radialGradient>
    <filter id="shadow"><feGaussianBlur stdDeviation="28"/></filter>
    <filter id="glow"><feGaussianBlur stdDeviation="7" result="b"/><feMerge><feMergeNode in="b"/><feMergeNode in="SourceGraphic"/></feMerge></filter>
  </defs>
  <rect width="1600" height="1000" fill="url(#bg)"/>
  <ellipse cx="835" cy="840" rx="390" ry="70" fill="#000" opacity=".65" filter="url(#shadow)"/>
  <g transform="translate(820 500) rotate(-13)">
    <rect x="-115" y="-600" width="230" height="1200" rx="96" fill="url(#strap)" stroke="#606872" stroke-opacity=".23" stroke-width="4"/>
    <path d="M-118-250h236l88 92v316l-88 92h-236l-88-92v-316z" fill="url(#steel)"/>
    <circle r="286" fill="#171a1f" stroke="#050608" stroke-width="25"/>
    <circle r="260" fill="none" stroke="url(#steel)" stroke-width="25"/>
    <circle r="224" fill="url(#dial)" stroke="#3d444c" stroke-width="5"/>
    <g fill="#c6ff4a" filter="url(#glow)">
      <path d="M-13-198h26l8 48h-42z"/>
      <rect x="-11" y="159" width="22" height="39" rx="7"/>
      <rect x="159" y="-11" width="39" height="22" rx="7"/>
      <rect x="-198" y="-11" width="39" height="22" rx="7"/>
      <g opacity=".9">
        <circle cx="94" cy="-163" r="8"/><circle cx="163" cy="-94" r="8"/><circle cx="163" cy="94" r="8"/><circle cx="94" cy="163" r="8"/><circle cx="-94" cy="163" r="8"/><circle cx="-163" cy="94" r="8"/><circle cx="-163" cy="-94" r="8"/><circle cx="-94" cy="-163" r="8"/>
      </g>
    </g>
    <text y="-82" fill="#dce2e7" text-anchor="middle" font-family="Arial, sans-serif" font-size="24" letter-spacing="8">MERIDIAN</text>
    <text y="-50" fill="#7f8992" text-anchor="middle" font-family="monospace" font-size="13" letter-spacing="4">AUTOMATIC · 300M</text>
    <g fill="#c6ff4a" filter="url(#glow)">
      <path d="M-16 24L-7-126 7-126 16 24z" transform="rotate(38)"/>
      <path d="M-12 25L-6-83 6-83 12 25z" transform="rotate(132)"/>
    </g>
    <circle r="15" fill="#b08d57"/><circle r="5" fill="#11151a"/>
    <rect x="-17" y="91" width="34" height="42" rx="4" fill="#dbe2e7" opacity=".85"/>
    <text y="120" fill="#101318" text-anchor="middle" font-family="monospace" font-size="22">18</text>
    <circle r="217" fill="none" stroke="#fff" stroke-opacity=".09" stroke-width="3"/>
    <path d="M-132-180Q-12-255 124-187" fill="none" stroke="#fff" stroke-opacity=".24" stroke-width="13" stroke-linecap="round"/>
    <g transform="translate(310 0)"><rect x="-18" y="-49" width="48" height="98" rx="14" fill="#252a30"/><circle cx="31" r="39" fill="url(#steel)"/><path d="M12-25v50M25-32v64M38-31v62M51-25v50" stroke="#111418" stroke-width="5"/></g>
  </g>
  <g opacity=".28"><rect x="250" y="-100" width="34" height="1100" fill="#d9e4eb" transform="rotate(18 250 -100)"/><rect x="1260" y="-100" width="16" height="1100" fill="#d9e4eb" transform="rotate(-12 1260 -100)"/></g>
</svg>
